<?xml version="1.0" standalone="no"?>
<!DOCTYPE svg PUBLIC "-//W3C//DTD SVG 20010904//EN"
 "http://www.w3.org/TR/2001/REC-SVG-20010904/DTD/svg10.dtd">
<svg version="1.0" xmlns="http://www.w3.org/2000/svg"
 width="2880.000000pt" height="2880.000000pt" viewBox="0 0 2880.000000 2880.000000"
 preserveAspectRatio="xMidYMid meet">
<metadata>
Created by potrace 1.14, written by Peter Selinger 2001-2017
</metadata>
<g transform="translate(0.000000,2880.000000) scale(0.100000,-0.100000)"
fill="#000000" stroke="none">
<path d="M0 14400 l0 -14400 14400 0 14400 0 0 14400 0 14400 -14400 0 -14400
0 0 -14400z m14985 8890 c1544 -109 2961 -579 4253 -1412 759 -490 1477 -1132
2064 -1849 810 -988 1423 -2204 1727 -3424 209 -838 293 -1605 270 -2475 -41
-1497 -453 -2929 -1222 -4245 -558 -953 -1320 -1820 -2214 -2517 -1316 -1026
-2900 -1661 -4563 -1827 -683 -69 -1343 -61 -2017 24 -1311 166 -2545 611
-3668 1323 -694 440 -1372 1023 -1926 1657 -1181 1352 -1927 3030 -2134 4802
-52 450 -74 978 -57 1386 56 1312 363 2511 937 3658 383 764 865 1456 1451
2084 1255 1343 2888 2267 4664 2639 492 102 938 160 1437 186 195 10 796 4
998 -10z"/>
<path d="M14005 23060 c-1524 -88 -2853 -493 -4100 -1248 -606 -368 -1117
-772 -1650 -1306 -425 -425 -711 -774 -1061 -1291 -1301 -1925 -1761 -4341
-1268 -6650 224 -1050 671 -2100 1272 -2990 205 -304 498 -682 734 -948 141
-158 477 -496 648 -651 884 -802 1930 -1416 3055 -1795 1181 -398 2446 -534
3700 -401 2336 250 4478 1449 5921 3315 603 780 1058 1630 1369 2558 509 1521
583 3188 209 4762 -60 253 -95 374 -201 700 -589 1809 -1792 3396 -3393 4477
-1149 776 -2469 1263 -3843 1418 -428 48 -1038 70 -1392 50z m980 -460 c864
-67 1655 -247 2431 -553 1777 -701 3252 -1998 4182 -3679 496 -897 811 -1855
951 -2903 102 -752 89 -1609 -34 -2375 -275 -1705 -1083 -3282 -2309 -4505
-616 -615 -1350 -1146 -2103 -1524 -840 -420 -1691 -683 -2603 -805 -1159
-155 -2357 -62 -3455 269 -1318 397 -2482 1092 -3456 2065 -893 891 -1565
1969 -1968 3154 -281 828 -418 1612 -438 2506 -38 1813 533 3597 1615 5048
689 923 1535 1674 2532 2247 159 91 550 288 735 370 928 410 1874 636 2910
695 188 11 824 5 1010 -10z"/>
<path d="M14775 20200 c-1546 -111 -2776 -637 -3730 -1594 -202 -202 -337
-358 -495 -571 -551 -739 -925 -1663 -1071 -2644 -77 -518 -91 -1218 -34
-1751 55 -506 173 -1027 338 -1480 556 -1534 1687 -2670 3190 -3201 463 -163
950 -274 1452 -328 531 -58 1112 -56 1580 5 1014 131 1973 520 2781 1127 199
150 604 503 604 527 0 6 -328 320 -528 504 l-52 49 -68 -62 c-583 -532 -1160
-877 -1861 -1111 -570 -191 -1039 -265 -1666 -264 -531 1 -914 44 -1375 156
-1041 251 -1894 786 -2527 1585 -514 648 -877 1533 -1002 2443 -76 551 -75
1159 4 1705 59 407 178 855 330 1240 67 170 238 516 332 675 554 927 1389
1593 2433 1940 400 133 755 207 1230 257 210 22 899 25 1085 5 433 -46 793
-123 1171 -248 649 -214 1319 -619 1801 -1087 l92 -89 24 18 c70 56 577 499
577 505 0 10 -228 219 -361 330 -827 693 -1818 1142 -2879 1303 -324 49 -444
58 -860 61 -217 2 -449 -1 -515 -5z"/>
</g>
</svg>
