<?xml version="1.0" standalone="no"?>
<!DOCTYPE svg PUBLIC "-//W3C//DTD SVG 20010904//EN"
 "http://www.w3.org/TR/2001/REC-SVG-20010904/DTD/svg10.dtd">
<svg version="1.0" xmlns="http://www.w3.org/2000/svg"
 width="700.000000pt" height="700.000000pt" viewBox="0 0 700.000000 700.000000"
 preserveAspectRatio="xMidYMid meet">
<metadata>
Created by potrace 1.14, written by Peter Selinger 2001-2017
</metadata>
<g transform="translate(0.000000,700.000000) scale(0.100000,-0.100000)"
fill="#000000" stroke="none">
<path d="M5850 6553 c-711 -73 -1338 -359 -1840 -840 -190 -182 -369 -403
-499 -618 l-64 -105 39 -45 c349 -411 556 -773 706 -1232 l63 -193 30 0 c56 0
280 41 420 77 759 194 1425 686 1840 1358 271 439 429 948 452 1458 l6 147
-559 -2 c-307 0 -575 -3 -594 -5z"/>
<path d="M3 5538 c12 -274 61 -539 152 -813 329 -1000 1164 -1770 2185 -2015
209 -50 358 -71 613 -86 l107 -6 0 -1002 0 -1002 28 -55 c18 -35 42 -64 70
-84 l44 -30 298 0 298 0 44 30 c28 20 53 49 71 85 l28 55 -4 1140 c-4 1240 -3
1212 -63 1497 -124 590 -410 1116 -839 1543 -432 431 -977 721 -1580 839 -228
45 -282 48 -879 53 l-579 5 6 -154z"/>
</g>
</svg>
